HIERARCHY
ROOT Hips
{
	OFFSET 0.00000 0.00000 0.00000
	CHANNELS 6 Xposition Yposition Zposition Zrotation Yrotation Xrotation 
	JOINT LHipJoint
	{
		OFFSET 0 0 0
		CHANNELS 3 Zrotation Yrotation Xrotation
		JOINT LeftHip
		{
			OFFSET 1.38691 -1.89057 0.78360
			CHANNELS 3 Zrotation Yrotation Xrotation
			JOINT LeftKnee
			{
				OFFSET 2.59731 -7.13606 0.00000
				CHANNELS 3 Zrotation Yrotation Xrotation
				JOINT LeftAnkle
				{
					OFFSET 2.70078 -7.42033 0.00000
					CHANNELS 3 Zrotation Yrotation Xrotation
					JOINT LeftToe
					{
						OFFSET 0.16751 -0.46024 2.68862
						CHANNELS 3 Zrotation Yrotation Xrotation
						End Site
						{
							OFFSET 0.00000 -0.00000 1.37057
						}
					}
				}
			}
		}
	}
	JOINT RHipJoint
	{
		OFFSET 0 0 0
		CHANNELS 3 Zrotation Yrotation Xrotation
		JOINT RightHip
		{
			OFFSET -1.38190 -1.89056 0.78359
			CHANNELS 3 Zrotation Yrotation Xrotation
			JOINT RightKnee
			{
				OFFSET -2.57785 -7.08258 0.00000
				CHANNELS 3 Zrotation Yrotation Xrotation
				JOINT RightAnkle
				{
					OFFSET -2.77908 -7.63547 0.00000
					CHANNELS 3 Zrotation Yrotation Xrotation
					JOINT RightToe
					{
						OFFSET -0.17921 -0.49237 2.62360
						CHANNELS 3 Zrotation Yrotation Xrotation
						End Site
						{
							OFFSET -0.00000 -0.00000 1.34085
						}
					}
				}
			}
		}
	}
	JOINT lowerback
	{
		OFFSET 0 0 0
		CHANNELS 3 Zrotation Yrotation Xrotation
		JOINT Chest
		{
			OFFSET -0.10749 2.04110 -0.22549
			CHANNELS 3 Zrotation Yrotation Xrotation
			JOINT Chest2
			{
				OFFSET 0.01213 2.05840 0.00691
				CHANNELS 3 Zrotation Yrotation Xrotation
				JOINT lowerneck
				{
					OFFSET 0 0 0
					CHANNELS 3 Zrotation Yrotation Xrotation
					JOINT Neck
					{
						OFFSET 0.06585 1.81215 0.35449
						CHANNELS 3 Zrotation Yrotation Xrotation
						JOINT Head
						{
							OFFSET -0.04315 1.87555 -0.27307
							CHANNELS 3 Zrotation Yrotation Xrotation
							End Site
							{
								OFFSET -0.01775 1.89740 -0.13294
							}
						}
					}
				}
				JOINT LeftCollar
				{
					OFFSET 0 0 0
					CHANNELS 3 Zrotation Yrotation Xrotation
					JOINT LeftShoulder
					{
						OFFSET 2.98012 1.63606 0.28888
CHANNELS 3 Zrotation Xrotation Yrotation
						JOINT LeftElbow
						{
OFFSET 0 -5.598640 -0.000000
CHANNELS 3 Zrotation Xrotation Yrotation
							JOINT LeftWrist
							{
OFFSET 0 -3.595420 -0.000000
CHANNELS 3 Zrotation Xrotation Yrotation
								JOINT lhand
								{
									OFFSET 0 0 0
CHANNELS 3 Zrotation Xrotation Yrotation
									JOINT LFingers
									{
OFFSET 0 -0.572010 -0.000000
CHANNELS 3 Zrotation Xrotation Yrotation
										End Site
										{
OFFSET 0 -0.461170 -0.000000
										}
									}
								}
								JOINT LThumb
								{
OFFSET 0 0.000000 0.000000
CHANNELS 3 Zrotation Xrotation Yrotation
									End Site
									{
OFFSET 0 -0.468210 0.468210
									}
								}
							}
						}
					}
				}
				JOINT RightCollar
				{
					OFFSET 0 0 0
					CHANNELS 3 Zrotation Yrotation Xrotation
					JOINT RightShoulder
					{
						OFFSET -3.08694 1.53706 0.36335
CHANNELS 3 Zrotation Xrotation Yrotation
						JOINT RightElbow
						{
OFFSET 0 -5.809400 -0.000000
CHANNELS 3 Zrotation Xrotation Yrotation
							JOINT RightWrist
							{
OFFSET 0 -3.669530 -0.000000
CHANNELS 3 Zrotation Xrotation Yrotation
								JOINT rhand
								{
									OFFSET 0 0 0
CHANNELS 3 Zrotation Xrotation Yrotation
									JOINT RFingers
									{
OFFSET 0 -0.578430 -0.000000
CHANNELS 3 Zrotation Xrotation Yrotation
										End Site
										{
OFFSET 0 -0.466350 -0.000000
										}
									}
								}
								JOINT RThumb
								{
OFFSET 0 0.000000 0.000000
CHANNELS 3 Zrotation Xrotation Yrotation
									End Site
									{
OFFSET 0 -0.473470 0.473470
									}
								}
							}
						}
					}
				}
			}
		}
	}
}
MOTION
Frames: 7
Frame Time: 0.008333333333333333
-13.554500 18.026800 -38.649100 6.481000 37.800600 11.690300 0.000000 0.000000 0.000000 -7.897500 3.820000 -3.566500 13.506100 18.957300 70.690100 -0.774800 -18.783100 -4.657300 0.348500 3.793100 10.495400 0.000000 0.000000 0.000000 11.326900 13.385600 -40.092900 -13.423200 -18.929700 70.434800 -3.913800 17.290200 -36.186300 -0.958900 6.235300 -17.468600 -6.169500 -1.997000 17.860300 -1.932100 -4.010500 0.918500 2.391000 -1.691200 -8.745300 1.112600 -0.468500 -14.919100 3.092000 -1.787700 35.271100 0.815800 -0.063700 14.722500 0.000000 0.000000 0.000000 -2.669300 -41.927700 -69.737100 56.079500 -55.171400 31.100200 39.006100 -24.528100 -1.576000 0.000000 0.000000 0.000000 -7.125000 0.000000 0.000000 9.966500 31.904000 3.236400 0.000000 0.000000 0.000000 -40.401100 -0.783000 34.320000 -80.061700 -59.623500 -51.404100 -47.927800 -14.593300 0.998100 0.000000 0.000000 0.000000 7.125000 0.000000 -0.000000 -16.896700 31.176000 -5.940100
-13.567629 18.055889 -38.468900 6.503010 38.423192 11.741271 0.000000 0.000000 0.000000 -8.058393 3.815109 -4.615223 13.706938 19.021185 71.306085 -0.813200 -19.348285 -4.956132 0.297229 3.487103 9.639877 0.000000 0.000000 0.000000 11.498906 13.191370 -39.812474 -13.300535 -18.887439 70.055736 -3.949411 17.195294 -36.339470 -0.879269 5.969075 -16.697171 -6.117542 -1.957570 17.829966 -1.899664 -3.940908 0.938537 2.378386 -1.660738 -8.712778 3.164052 -0.559072 -15.806415 -0.230122 -1.356463 36.684600 -0.923090 -0.019465 15.589736 0.000000 0.000000 0.000000 -3.027856 -41.321154 -70.308163 56.145402 -55.192080 31.154346 39.058616 -24.441132 -1.438705 0.000000 0.000000 0.000000 -7.125000 0.000000 0.000000 9.991514 31.730407 3.287242 0.000000 0.000000 0.000000 -40.124021 -0.256214 34.307429 -80.397688 -59.648127 -51.694051 -47.741936 -14.289276 0.886547 0.000000 0.000000 0.000000 7.125000 0.000000 0.000000 -16.725467 31.017939 -5.940529
-13.580758 18.084979 -38.288699 6.525020 39.045784 11.792242 0.000000 0.000000 0.000000 -8.219286 3.810218 -5.663946 13.907775 19.085071 71.922070 -0.851600 -19.913471 -5.254964 0.245957 3.181105 8.784355 0.000000 0.000000 0.000000 11.670911 12.997140 -39.532048 -13.177870 -18.845177 69.676671 -3.985022 17.100389 -36.492641 -0.799637 5.702851 -15.925742 -6.065584 -1.918141 17.799633 -1.867228 -3.871317 0.958573 2.365772 -1.630275 -8.680256 5.215504 -0.649644 -16.693730 -3.552244 -0.925227 38.098100 -2.661981 0.024770 16.456971 0.000000 0.000000 0.000000 -3.386412 -40.714609 -70.879227 56.211304 -55.212760 31.208492 39.111131 -24.354164 -1.301409 0.000000 0.000000 0.000000 -7.125000 0.000000 0.000000 10.016527 31.556814 3.338084 0.000000 0.000000 0.000000 -39.846941 0.270571 34.294858 -80.733676 -59.672755 -51.984002 -47.556072 -13.985253 0.774995 0.000000 0.000000 0.000000 7.125000 0.000000 0.000000 -16.554234 30.859877 -5.940958
-13.593398 18.114413 -38.107092 6.605063 39.689654 11.852545 0.000000 0.000000 0.000000 -8.452971 3.801249 -6.614408 14.058678 19.131239 72.383283 -0.854968 -20.376921 -5.846771 0.194772 2.809007 7.749596 0.000000 0.000000 0.000000 11.807713 12.817783 -39.213345 -13.053827 -18.801021 69.292008 -4.047424 16.899125 -36.757683 -0.750931 5.533251 -15.436289 -6.053339 -1.883306 17.802981 -1.844813 -3.818724 0.982285 2.370128 -1.605929 -8.659278 5.812508 -0.788141 -17.003998 -4.565517 -0.948024 38.579670 -3.214243 -0.025811 16.743484 0.000000 0.000000 0.000000 -3.724666 -40.132700 -71.419824 56.215986 -55.214230 31.212359 38.959544 -24.152309 -1.378065 0.000000 0.000000 0.000000 -7.125000 0.000000 0.000000 9.904658 31.652133 3.277888 0.000000 0.000000 0.000000 -39.576351 0.816194 34.337878 -81.077704 -59.696521 -52.280988 -47.513351 -14.003808 0.509130 0.000000 0.000000 0.000000 7.125000 0.000000 0.000000 -16.457256 30.482063 -6.058514
-13.605798 18.144017 -37.924789 6.713783 40.344039 11.917460 0.000000 0.000000 0.000000 -8.722628 3.790265 -7.516311 14.184904 19.168652 72.768011 -0.841024 -20.790094 -6.583361 0.143630 2.404243 6.626262 0.000000 0.000000 0.000000 11.927117 12.645778 -38.875727 -12.929103 -18.755928 68.904577 -4.123065 16.645300 -37.078010 -0.717509 5.411401 -15.086186 -6.060719 -1.850741 17.822975 -1.827351 -3.774532 1.007814 2.382871 -1.584605 -8.644004 5.690744 -0.950321 -17.029097 -4.437789 -1.195199 38.600693 -3.180091 -0.123248 16.743012 0.000000 0.000000 0.000000 -4.052888 -39.562966 -71.945366 56.190415 -55.206207 31.191378 38.707092 -23.893678 -1.560454 0.000000 0.000000 0.000000 -7.125000 0.000000 0.000000 9.725145 31.880343 3.162817 0.000000 0.000000 0.000000 -39.308968 1.371125 34.408371 -81.425705 -59.719861 -52.581450 -47.541367 -14.181777 0.167007 0.000000 0.000000 0.000000 7.125000 0.000000 0.000000 -16.396975 29.995651 -6.233952
-13.618038 18.173331 -37.741034 6.817711 40.992512 11.955999 0.000000 0.000000 0.000000 -8.997804 3.793370 -8.370501 14.298117 19.201810 73.112768 -0.802955 -21.138853 -7.462637 0.095552 1.927424 5.306909 0.000000 0.000000 0.000000 12.056557 12.506742 -38.491472 -12.803420 -18.709717 68.513399 -4.205838 16.385680 -37.430349 -0.681370 5.276029 -14.698015 -6.071090 -1.819774 17.849156 -1.814130 -3.733129 1.043131 2.393406 -1.564923 -8.621308 5.567717 -1.101216 -17.069694 -4.300374 -1.429331 38.637563 -3.140129 -0.213539 16.757064 0.000000 0.000000 0.000000 -4.333137 -38.975935 -72.436514 56.159005 -55.196339 31.165590 38.564777 -23.707800 -1.644179 0.000000 0.000000 0.000000 -7.125000 0.000000 0.000000 9.621810 31.984997 3.102749 0.000000 0.000000 0.000000 -39.032551 1.926434 34.491688 -81.824105 -59.745278 -52.925529 -47.564620 -14.165964 -0.027812 0.000000 0.000000 0.000000 7.125000 0.000000 0.000000 -16.368211 29.718562 -6.336333
-13.629965 18.202077 -37.554441 6.912274 41.629434 11.942999 0.000000 0.000000 0.000000 -9.283765 3.824004 -9.131462 14.385900 19.226651 73.379422 -0.717746 -21.361744 -8.620725 0.053462 1.309809 3.604530 0.000000 0.000000 0.000000 12.205609 12.432131 -38.016086 -12.675863 -18.661320 68.114899 -4.302545 16.114736 -37.845239 -0.639924 5.114235 -14.235457 -6.087308 -1.791929 17.887427 -1.809196 -3.697174 1.097577 2.399627 -1.548447 -8.584109 5.442220 -1.230059 -17.140573 -4.144029 -1.637977 38.705395 -3.088815 -0.289866 16.799497 0.000000 0.000000 0.000000 -4.519644 -38.355102 -72.860456 56.116186 -55.182867 31.130408 38.637672 -23.664080 -1.535115 0.000000 0.000000 0.000000 -7.125000 0.000000 0.000000 9.667332 31.848216 3.150159 0.000000 0.000000 0.000000 -38.738481 2.482480 34.600066 -82.320986 -59.774754 -53.354835 -47.578564 -13.771497 0.065206 0.000000 0.000000 0.000000 7.125000 0.000000 0.000000 -16.401033 29.850494 -6.295959
